<svg version="1.1" id="Layer_1" xmlns="http://www.w3.org/2000/svg" xmlns:xlink="http://www.w3.org/1999/xlink" x="0px" y="0px"
	 width="100%" viewBox="0 0 1024 672" enable-background="new 0 0 1024 672" xml:space="preserve">
<path fill="#000000" opacity="1.000000" stroke="none" 
	d="
M281.923309,394.717163 
	C287.047913,394.210938 287.768097,397.322571 288.261536,400.902710 
	C288.964752,406.004730 289.858704,411.082031 290.756287,416.154816 
	C291.039001,417.752716 291.595123,419.302216 292.322815,420.832550 
	C293.139893,413.918579 291.868347,407.121277 291.087097,400.340881 
	C290.621490,396.299774 291.678894,394.908783 295.753448,395.011261 
	C302.911987,395.191284 310.080536,394.974701 317.244873,394.924500 
	C319.455597,394.908997 321.957428,394.744781 322.049500,397.835846 
	C322.133087,400.642395 323.445953,404.003662 319.640717,405.696808 
	C315.704193,407.448364 311.776947,409.220673 307.831879,411.650360 
	C313.157074,411.650360 318.482574,411.684631 323.807373,411.638336 
	C327.373871,411.607269 326.987976,408.857880 327.026001,406.591888 
	C327.271820,391.934937 327.516235,377.277588 327.650574,362.619293 
	C327.746307,352.168182 327.669159,341.715515 327.669159,330.985138 
	C323.056549,331.574280 322.182526,334.124695 322.196625,337.682648 
	C322.261322,354.011719 322.071228,370.342896 322.274017,386.669586 
	C322.332062,391.340240 320.774719,392.772980 316.156433,392.476196 
	C309.516876,392.049591 302.819733,392.041687 296.172943,392.372803 
	C291.731354,392.594025 290.255524,390.736328 290.080292,386.670135 
	C289.843842,381.183929 289.155365,375.716187 288.952881,370.229736 
	C287.927582,342.446472 286.519897,314.669495 287.565063,286.847198 
	C287.689667,283.529755 288.615967,281.933228 292.186768,282.100586 
	C319.656921,283.388367 347.112701,281.326599 374.579987,281.688873 
	C376.485443,281.713959 378.545135,281.042786 380.337952,282.488708 
	C380.373108,284.713257 378.482666,285.124329 377.149750,285.863068 
	C351.080963,300.311462 324.974609,314.692078 298.914490,329.156097 
	C295.256866,331.186096 290.569916,332.790070 293.042053,339.524200 
	C321.749054,323.696106 350.335419,307.934540 380.234161,291.449371 
	C380.234161,318.229675 380.234161,343.744415 380.234161,369.259125 
	C380.995392,369.266052 381.756622,369.272949 382.517853,369.279846 
	C382.517853,363.066254 382.902710,356.823486 382.435089,350.645264 
	C381.551300,338.968567 382.805084,327.336731 382.629089,315.681091 
	C382.468323,305.034393 382.469421,294.380005 382.697357,283.735382 
	C382.783142,279.729218 381.690582,278.245331 377.413208,278.179016 
	C364.122101,277.973022 350.844330,278.688934 337.523102,277.713409 
	C327.288757,276.963928 327.165619,277.776184 325.528351,267.788940 
	C324.049500,258.767792 322.331116,249.836761 317.803375,241.697281 
	C321.389526,251.812073 323.141663,262.316895 324.858704,272.846893 
	C325.501709,276.790039 324.453796,278.409973 320.327118,278.338196 
	C311.165283,278.178802 301.997894,278.193970 292.834991,278.311401 
	C288.913269,278.361664 287.558167,277.063477 288.138977,272.933563 
	C289.577789,262.702850 291.012695,252.514679 294.726532,242.781403 
	C296.455048,238.251343 298.749542,234.074158 301.430298,230.084412 
	C293.421417,237.899323 288.800598,247.567215 286.424286,258.374786 
	C285.247009,263.729004 284.417938,269.162628 283.535339,274.577301 
	C283.209900,276.574188 282.677673,278.268585 280.268890,278.129974 
	C267.189392,277.377106 254.076340,276.881348 241.544312,274.079407 
	C240.562714,272.117676 241.522903,270.993439 242.088058,269.853882 
	C254.295288,245.239517 273.021332,229.082336 301.060669,226.194519 
	C312.549500,225.011261 323.918823,227.458496 334.782532,231.672745 
	C337.192078,232.607437 337.264984,234.503799 337.259583,236.564453 
	C337.246460,241.551041 337.255310,246.537704 337.457703,251.535004 
	C338.885315,245.737122 336.872040,239.611771 339.115509,233.196915 
	C357.425385,240.154510 370.879883,252.453217 382.672943,267.932373 
	C382.672943,265.532349 382.706451,263.131714 382.662750,260.732483 
	C382.625153,258.666992 383.080444,257.052216 385.581177,257.023712 
	C388.045013,256.995605 388.652740,258.490204 388.598907,260.623291 
	C388.536041,263.114929 388.799042,265.636688 388.504089,268.095428 
	C388.054108,271.846558 389.813812,272.843811 393.134888,272.567657 
	C395.282379,272.389130 397.452454,272.313202 399.603729,272.401794 
	C401.334808,272.473083 402.244354,273.515472 402.296509,275.346863 
	C402.352600,277.316376 401.646820,278.632141 399.585907,278.787415 
	C397.430023,278.949829 395.258575,279.041473 393.098694,278.984161 
	C389.651215,278.892731 388.435974,280.549347 388.440826,283.886963 
	C388.479187,310.379303 388.461945,336.871948 388.354218,363.364044 
	C388.340332,366.786133 389.588196,368.253204 393.025513,368.120026 
	C396.352051,367.991119 399.689819,368.077118 403.020477,368.157898 
	C405.014465,368.206238 406.665863,368.732941 406.522766,371.308838 
	C406.386536,373.761414 404.878754,374.293396 402.802948,374.267548 
	C399.970795,374.232300 397.137756,374.244324 394.305298,374.264099 
	C388.557343,374.304291 388.155029,374.761963 388.538849,380.660522 
	C388.636078,382.155029 388.821533,383.655640 388.763123,385.145477 
	C388.680664,387.247528 388.287415,389.239655 385.458374,389.133606 
	C382.856720,389.036102 382.720581,387.170715 382.703369,385.254395 
	C382.681030,382.767883 382.697937,380.281036 382.697937,377.761169 
	C380.305328,377.122833 379.044922,378.759857 377.676086,379.703949 
	C365.012451,388.437622 351.764648,396.102722 337.258728,401.328888 
	C333.241058,402.776367 333.046204,405.465210 333.320282,408.789520 
	C333.656403,412.865143 336.828644,411.631561 339.036652,411.640442 
	C359.864746,411.723907 380.693298,411.691406 401.521698,411.694733 
	C402.854584,411.694946 404.187500,411.717224 405.520386,411.725067 
	C407.555481,411.737061 409.164429,412.199005 409.137085,414.743103 
	C409.109741,417.287262 407.358246,417.777161 405.429474,417.776642 
	C399.105255,417.774902 392.781158,417.605927 386.456757,417.584961 
	C358.964600,417.493805 331.471954,417.489746 303.980621,417.293304 
	C300.186951,417.266205 298.767548,418.663788 299.188416,422.261108 
	C299.661743,426.306396 297.671814,427.344238 293.897491,427.303131 
	C276.216034,427.110565 263.356506,418.206726 252.927582,404.913452 
	C249.677078,400.770233 247.010025,396.214355 244.635315,390.424713 
	C257.498260,392.043060 269.412689,394.087463 281.923309,394.717163 
M367.094574,370.744934 
	C369.374390,373.916260 369.701416,370.308105 371.191345,370.083588 
	C370.052582,368.696198 369.250061,367.718445 368.381866,366.660675 
	C367.901886,367.998230 366.116333,368.659851 367.094574,370.744934 
z"/>
<path fill="#000000" opacity="1.000000" stroke="none" 
	d="
M435.079041,279.215698 
	C444.897491,261.900909 460.554688,254.459351 478.983337,251.788925 
	C495.427979,249.406006 511.861084,251.149323 528.273315,252.684021 
	C530.434448,252.886093 531.699036,253.811996 532.147034,255.843872 
	C533.501343,261.985870 534.810974,268.137756 536.074097,273.989868 
	C534.202209,276.076569 532.252075,275.348816 530.526672,275.355957 
	C517.365967,275.410278 504.192688,275.030273 491.047546,275.485321 
	C479.528595,275.884033 468.681671,278.948181 462.405670,289.749664 
	C449.901855,311.269623 463.500885,335.506378 489.102997,337.593079 
	C497.434723,338.272125 505.729156,337.605438 513.906555,335.649139 
	C516.814453,334.953461 518.350952,333.938049 518.461670,330.402313 
	C518.868347,317.411438 519.044250,317.478149 505.933044,317.391998 
	C500.825104,317.358429 495.668854,317.941223 489.887177,316.764771 
	C491.337524,310.058014 492.648346,303.609436 494.165619,297.209808 
	C494.636139,295.225128 496.594421,295.119080 498.277527,295.115143 
	C512.770935,295.081299 527.264343,295.093475 541.757751,295.066589 
	C544.467285,295.061584 545.505493,296.188568 545.482483,299.023041 
	C545.347107,315.681427 545.348694,332.341187 545.383484,349.000336 
	C545.388916,351.581421 544.925293,353.532806 542.091675,354.341583 
	C516.411194,361.671021 490.426514,365.380829 464.465637,356.773651 
	C428.238098,344.762512 421.031097,306.281921 435.079041,279.215698 
z"/>
<path fill="#000000" opacity="1.000000" stroke="none" 
	d="
M625.302551,329.202209 
	C621.595276,338.351776 617.890930,347.090881 614.502502,355.950806 
	C613.297363,359.101898 611.523743,360.310547 608.195984,360.246979 
	C599.871277,360.087982 591.540222,360.127319 583.214111,360.248810 
	C580.201965,360.292755 578.295105,359.412598 577.073425,356.419098 
	C563.551270,323.287872 549.920532,290.200989 536.344421,257.091766 
	C535.917847,256.051544 535.762817,254.899963 535.319763,253.169952 
	C541.359619,252.263550 547.178284,253.354919 552.805420,252.590210 
	C561.208557,251.448242 565.376892,254.479507 568.392517,262.687195 
	C575.446350,281.885864 583.746521,300.627594 591.597656,319.531219 
	C592.594543,321.931458 593.203796,324.560608 595.414734,327.030243 
	C596.932800,323.572998 598.400085,320.468811 599.675598,317.287720 
	C607.542175,297.667847 615.475464,278.073303 623.115173,258.365112 
	C624.743347,254.164871 626.839172,252.282166 631.505432,252.602875 
	C637.473145,253.013062 643.491089,252.658844 649.486450,252.722076 
	C651.247437,252.740646 653.156250,252.262711 655.403564,254.257263 
	C645.479614,278.950775 635.454834,303.895081 625.302551,329.202209 
z"/>
<path fill="#000000" opacity="1.000000" stroke="none" 
	d="
M235.943146,286.078796 
	C236.492844,284.256012 237.013138,282.843597 237.343933,281.388092 
	C238.026764,278.383667 239.780823,277.272491 242.804169,277.889496 
	C254.565918,280.289948 266.523438,280.955872 278.460541,281.706360 
	C281.605988,281.904175 282.894989,282.968353 282.729034,286.258881 
	C281.470276,311.218689 282.153931,336.172791 283.443726,361.105621 
	C283.846161,368.885132 285.111938,376.619904 285.977448,384.375702 
	C286.215210,386.506073 286.692474,388.645355 285.666504,391.232971 
	C276.835907,391.775574 268.042053,390.026520 259.209198,388.977875 
	C255.750900,388.567291 252.345779,387.658447 248.883118,387.347137 
	C244.176178,386.923950 241.563965,384.634705 240.020126,380.104858 
	C236.086655,368.563599 233.286514,356.794861 231.759262,344.714600 
	C231.577469,343.276672 231.734558,341.795868 231.734558,339.748688 
	C247.092026,341.328003 262.074707,344.402161 277.466217,343.609222 
	C277.049438,340.198975 275.373688,340.378326 273.919647,340.322571 
	C261.438660,339.843903 249.090912,338.230377 236.752228,336.351959 
	C232.325623,335.678070 230.593781,334.101227 230.590622,329.391083 
	C230.580856,314.841492 231.714371,300.489594 235.943146,286.078796 
z"/>
<path fill="#000000" opacity="1.000000" stroke="none" 
	d="
M232.853058,276.687439 
	C233.816498,278.077118 233.422699,279.221039 233.038376,280.304535 
	C227.450058,296.059540 225.621017,312.339996 226.140564,328.961365 
	C226.186310,330.425140 226.477371,331.974152 225.075760,333.932556 
	C213.919083,331.652252 202.896469,328.544006 193.627701,320.934265 
	C192.310974,319.853241 192.375366,318.403381 192.488770,316.827759 
	C193.651382,300.676147 199.119553,286.015167 207.621811,272.359924 
	C209.289383,269.681702 210.965485,268.734283 214.128571,270.365967 
	C219.920471,273.353699 226.356110,274.615173 232.853058,276.687439 
z"/>
<path fill="#000000" opacity="1.000000" stroke="none" 
	d="
M229.489014,382.600464 
	C219.949173,379.868896 211.037277,376.715363 203.492523,370.630920 
	C202.478180,369.812927 201.283310,368.947021 200.764023,367.828461 
	C194.726593,354.823151 191.910416,341.096771 191.916595,326.779449 
	C191.916794,326.347870 192.282318,325.916412 192.588806,325.238861 
	C193.231766,325.396027 193.952133,325.375214 194.407028,325.712494 
	C202.876724,331.992157 212.629593,335.220001 222.732361,337.535217 
	C225.107681,338.079559 226.826828,338.900452 227.054001,341.514709 
	C228.269257,355.498962 231.257492,369.074005 236.334259,382.178162 
	C236.483261,382.562744 236.229431,383.103394 236.153442,383.642090 
	C233.838684,384.431976 231.916046,383.115784 229.489014,382.600464 
z"/>
<path fill="#000000" opacity="1.000000" stroke="none" 
	d="
M261.727905,238.731110 
	C251.104324,246.958206 243.397690,257.062714 238.071503,268.942566 
	C236.595917,272.233795 234.950790,273.503632 231.244629,272.386688 
	C225.068771,270.525452 218.681122,269.318329 213.182739,265.748657 
	C220.368881,245.985168 270.548889,220.110321 291.589844,226.376572 
	C280.172394,228.994400 270.309479,232.014572 261.727905,238.731110 
z"/>
<path fill="#000000" opacity="1.000000" stroke="none" 
	d="
M248.023193,404.995270 
	C255.105896,415.498535 265.108337,421.385742 277.719574,425.305603 
	C257.869995,429.221954 210.583313,396.563232 205.332336,375.903137 
	C211.009186,378.791931 215.897720,382.467682 221.643738,383.705292 
	C233.389114,386.235107 242.942825,391.207855 246.991653,403.457428 
	C247.142029,403.912415 247.544769,404.283966 248.023193,404.995270 
z"/>
<path fill="#000000" opacity="1.000000" stroke="none" 
	d="
M786.726074,400.007477 
	C786.730103,397.013458 786.602661,394.507263 786.783020,392.023407 
	C786.939087,389.875183 785.730042,386.910278 788.879944,386.068604 
	C791.848145,385.275482 794.819580,385.532440 796.990112,388.352905 
	C800.440247,392.836121 803.979736,397.250641 807.484924,401.691376 
	C808.094971,402.464081 808.722900,403.222656 809.849304,404.613434 
	C811.258179,399.361847 810.511292,394.947754 810.627930,390.611328 
	C810.703735,387.791901 811.067078,385.761261 814.634521,385.748047 
	C818.081970,385.735260 818.879639,387.602966 818.877319,390.482727 
	C818.871338,397.971893 818.959839,405.461761 818.875732,412.949799 
	C818.854675,414.830231 819.297791,417.387299 816.740112,417.962036 
	C814.023193,418.572510 811.153809,418.903442 808.989746,416.161072 
	C804.788818,410.837524 800.462219,405.613159 795.202942,399.134674 
	C795.202942,403.594269 795.539062,406.709198 795.111328,409.715454 
	C794.655457,412.920013 797.542419,418.260529 790.802856,418.192078 
	C784.359619,418.126648 787.277710,413.024689 786.848633,409.978363 
	C786.411743,406.876465 786.736816,403.667236 786.726074,400.007477 
z"/>
<path fill="#000000" opacity="1.000000" stroke="none" 
	d="
M524.145508,397.972107 
	C524.309631,395.392456 524.568726,393.232910 524.559143,391.074524 
	C524.546143,388.153687 524.774841,385.780518 528.702026,385.827454 
	C532.507324,385.873016 532.381775,388.290680 532.369568,390.912964 
	C532.336243,398.073486 532.422119,405.235291 532.312744,412.394318 
	C532.282166,414.396393 533.258484,417.215546 530.406372,417.953735 
	C527.536255,418.696564 524.519165,418.893372 522.260742,415.940674 
	C518.022705,410.399689 513.611267,404.991241 508.298279,398.301697 
	C508.298279,404.122040 508.234375,408.639069 508.320770,413.153259 
	C508.378357,416.161194 507.938263,418.312805 504.081848,418.302948 
	C500.061646,418.292694 500.007477,415.799072 500.013397,412.977173 
	C500.028381,405.816833 499.961761,398.655457 500.068665,391.496643 
	C500.098724,389.482361 499.294617,386.679413 502.178680,386.033020 
	C505.074524,385.384003 508.153534,385.189270 510.402863,388.040436 
	C514.514893,393.252777 518.701538,398.406250 523.130737,403.925323 
	C524.399353,401.962311 523.829407,400.085571 524.145508,397.972107 
z"/>
<path fill="#000000" opacity="1.000000" stroke="none" 
	d="
M626.521790,410.590698 
	C627.865234,413.025085 630.022217,414.610718 630.409302,417.575745 
	C625.676453,419.028809 621.673523,418.869934 618.864929,414.120636 
	C617.937927,412.553101 616.835144,411.072418 615.679077,409.661621 
	C614.187073,407.840973 612.063477,408.115204 610.124146,408.488861 
	C607.855591,408.925964 608.228516,410.961273 608.259338,412.542725 
	C608.323242,415.821045 608.140137,418.588440 603.619629,418.296295 
	C600.942383,418.123260 599.674438,417.164307 599.695068,414.405884 
	C599.757141,406.092865 599.743286,397.779083 599.723083,389.465698 
	C599.717773,387.262512 600.642639,385.901917 602.916687,385.924133 
	C609.048950,385.984131 615.242615,385.038849 621.296021,386.558960 
	C630.486511,388.866852 633.114319,397.576660 626.511536,404.425446 
	C624.289001,406.730835 624.606628,408.284485 626.521790,410.590698 
M611.795593,393.238190 
	C608.406921,393.045258 608.066406,395.210114 608.260681,397.798676 
	C608.582764,402.088776 611.904968,400.821808 614.295410,400.896637 
	C617.342651,400.991974 620.834534,400.863586 620.696777,396.602448 
	C620.572998,392.776703 617.232300,393.348328 614.639526,393.214233 
	C613.977844,393.179993 613.312561,393.214874 611.795593,393.238190 
z"/>
<path fill="#000000" opacity="1.000000" stroke="none" 
	d="
M486.673431,386.904785 
	C495.761078,392.116913 498.728973,401.040100 494.507874,409.510193 
	C490.352814,417.847748 479.417023,421.508759 470.399689,417.581055 
	C461.748108,413.812653 457.743286,404.466095 461.204224,395.536743 
	C463.354095,389.989990 467.643707,386.709473 473.504242,385.758331 
	C477.815155,385.058655 482.130463,385.283813 486.673431,386.904785 
M482.555298,410.170380 
	C487.744293,406.329712 489.045532,401.485535 486.123627,396.886139 
	C483.618835,392.943329 477.949554,391.423920 473.779907,393.577881 
	C469.512451,395.782318 467.723541,401.379059 469.751465,406.181091 
	C471.666962,410.716858 476.294403,412.367767 482.555298,410.170380 
z"/>
<path fill="#000000" opacity="1.000000" stroke="none" 
	d="
M772.218750,417.649872 
	C760.263489,421.105347 751.112427,417.180267 747.756470,407.486755 
	C744.676880,398.591431 748.321533,389.859863 757.193176,386.789062 
	C767.367798,383.267303 780.236145,386.274658 782.876465,398.920471 
	C784.381104,406.126984 780.551147,413.187256 772.218750,417.649872 
M766.007141,411.510498 
	C767.090393,411.101532 768.238647,410.811920 769.245850,410.263306 
	C774.100525,407.619171 775.650330,401.824127 772.839050,397.062073 
	C770.267456,392.706085 764.235535,391.276337 759.842468,394.124542 
	C756.294617,396.424683 754.782532,399.826324 755.686829,403.962555 
	C756.783752,408.980225 760.059814,411.569641 766.007141,411.510498 
z"/>
<path fill="#000000" opacity="1.000000" stroke="none" 
	d="
M542.488403,387.193787 
	C550.498047,384.177460 557.749878,385.017670 564.921936,389.264618 
	C563.567200,393.627014 561.815308,396.106293 557.055420,393.505798 
	C554.693665,392.215576 551.942261,391.982727 549.250305,392.471893 
	C547.879456,392.721008 546.662781,393.479492 546.552246,395.018372 
	C546.430847,396.709442 547.813232,397.225861 549.126160,397.568726 
	C552.666321,398.493164 556.353027,399.012970 559.746643,400.308807 
	C566.450867,402.868713 567.627625,411.099579 562.162781,415.733826 
	C555.642395,421.263092 541.949463,419.969788 536.224548,413.212097 
	C537.644104,409.515900 539.733948,407.796265 543.732178,410.261719 
	C546.551270,412.000092 549.776855,411.962372 552.964233,411.649139 
	C554.534607,411.494843 556.076477,410.922760 556.287659,409.179413 
	C556.515015,407.302490 554.955688,406.682770 553.445496,406.299805 
	C550.704590,405.604675 547.947998,404.971741 545.201538,404.298279 
	C541.208191,403.319061 537.993042,401.300873 537.263428,396.978577 
	C536.546875,392.734131 538.569275,389.593079 542.488403,387.193787 
z"/>
<path fill="#000000" opacity="1.000000" stroke="none" 
	d="
M661.052490,385.856995 
	C663.831421,385.752106 666.112915,385.974548 666.081543,389.016937 
	C666.016418,395.330139 666.959839,401.700348 665.586060,407.946442 
	C663.864258,415.774963 656.813599,420.166412 648.065186,419.133484 
	C639.252258,418.092865 634.759705,413.295349 634.675232,404.757660 
	C634.629089,400.092621 634.732361,395.425537 634.644470,390.761719 
	C634.591064,387.926147 635.069214,385.936218 638.605896,385.838593 
	C642.449768,385.732422 642.983582,387.964111 642.971436,390.949615 
	C642.953796,395.281158 642.873413,399.617767 643.044373,403.943329 
	C643.245300,409.027069 645.461731,411.442932 649.705505,411.612946 
	C653.883240,411.780304 657.169373,408.872803 657.480103,404.173126 
	C657.787476,399.526001 657.626221,394.847168 657.645935,390.182098 
	C657.654907,388.060242 657.818787,386.084961 661.052490,385.856995 
z"/>
<path fill="#000000" opacity="1.000000" stroke="none" 
	d="
M684.532104,418.957489 
	C676.551819,417.340240 671.498596,413.041473 669.883972,405.359406 
	C668.282410,397.739197 671.827332,390.463165 678.338074,387.346069 
	C685.964111,383.695007 695.827454,385.147644 700.954407,390.820221 
	C699.187927,394.496155 697.328979,396.494720 692.664368,393.851776 
	C687.995789,391.206573 682.967834,392.741211 680.212524,396.486755 
	C677.501282,400.172302 677.680603,405.078766 680.649719,408.449036 
	C683.816772,412.043945 688.482788,412.857300 693.278748,409.735382 
	C696.701111,407.507660 698.710510,408.971680 700.311279,411.411163 
	C702.295837,414.435608 699.199219,415.403809 697.405884,416.509613 
	C693.605530,418.853180 689.377441,419.557037 684.532104,418.957489 
z"/>
<path fill="#000000" opacity="1.000000" stroke="none" 
	d="
M436.697266,387.253967 
	C442.904480,384.962708 448.805817,384.806946 454.550201,387.223083 
	C456.433075,388.015045 459.783936,388.726807 458.315552,391.879639 
	C457.078522,394.535645 454.745056,396.219147 451.367737,394.199402 
	C449.388733,393.015930 447.140228,392.269012 444.693787,392.710724 
	C440.714294,393.429230 438.065033,395.667969 436.892273,399.538605 
	C435.763184,403.264893 436.857910,406.520386 439.610565,409.053589 
	C442.559937,411.767761 446.000305,412.303467 449.784088,410.589630 
	C451.860107,409.649353 453.681946,407.196045 456.472595,409.620941 
	C459.083069,411.889252 459.526855,413.616943 456.455688,415.853699 
	C448.710236,421.494751 436.191772,419.703430 430.952667,412.014191 
	C425.078827,403.393341 427.819580,391.286743 436.697266,387.253967 
z"/>
<path fill="#000000" opacity="1.000000" stroke="none" 
	d="
M568.356445,392.933777 
	C565.710388,387.448853 566.492065,385.949310 571.743652,385.868103 
	C578.214172,385.768005 584.687195,385.839630 591.158569,385.777618 
	C593.911560,385.751251 596.149353,386.113586 596.141174,389.676178 
	C596.133423,393.019196 593.999023,393.585602 591.481018,393.227692 
	C586.195190,392.476410 584.865295,394.903198 585.242004,399.752106 
	C585.613525,404.534973 585.218140,409.372528 585.334717,414.181854 
	C585.407227,417.170441 584.167786,418.320770 581.204712,418.320404 
	C578.308289,418.320068 576.869080,417.280945 576.914734,414.274078 
	C576.977600,410.126770 576.898743,405.977509 576.900513,401.829071 
	C576.903992,393.593048 576.909607,393.593048 568.356445,392.933777 
z"/>
<path fill="#000000" opacity="1.000000" stroke="none" 
	d="
M727.891846,393.204834 
	C720.377502,393.308929 720.368958,393.308899 720.347656,400.427795 
	C720.333679,405.073608 720.298645,409.720276 720.370422,414.365051 
	C720.412109,417.060364 719.279968,418.264465 716.529419,418.290344 
	C713.787292,418.316132 712.005676,417.603088 712.026733,414.462097 
	C712.062317,409.152954 711.884460,403.838776 712.059875,398.535431 
	C712.183411,394.800293 710.992065,392.868347 706.951599,393.269745 
	C704.435852,393.519684 702.258728,393.055847 702.235901,389.726105 
	C702.211792,386.201508 704.422119,385.787659 707.202087,385.810455 
	C713.838623,385.864960 720.476074,385.808472 727.113037,385.827301 
	C728.991272,385.832611 730.942505,385.923950 731.147095,388.446472 
	C731.324219,390.630951 731.548157,392.957153 727.891846,393.204834 
z"/>
<path fill="#000000" opacity="1.000000" stroke="none" 
	d="
M734.595093,395.276062 
	C734.556885,393.319916 734.587769,391.822906 734.470215,390.337616 
	C734.260315,387.684509 734.714905,385.758179 738.044678,385.760223 
	C740.914001,385.761963 742.968079,386.391815 742.964783,389.790314 
	C742.956970,397.914520 742.942139,406.039093 743.012512,414.162811 
	C743.045166,417.932098 740.773376,418.349701 737.763489,418.296021 
	C734.386292,418.235870 734.221069,416.268066 734.312866,413.638092 
	C734.521057,407.676178 734.515808,401.706818 734.595093,395.276062 
z"/>
</svg>